<svg xmlns="http://www.w3.org/2000/svg" width="56" height="56.176" viewBox="0 0 56 56.176">
  <g id="Layer_2" data-name="Layer 2" transform="translate(0)">
    <g id="Layer_1" data-name="Layer 1" transform="translate(0)">
      <path id="Path_357" data-name="Path 357" d="M.132,53.474c4.8-3.32,6.808-9.047,10.953-12.928.681-.637.189-.976-.2-1.415a2.331,2.331,0,0,1-.048-3.506,2.237,2.237,0,0,1,3.469.061c.878.938,1.475.714,2.342.06a55.33,55.33,0,0,1,19.161-8.869c.28-.075.565-.129.85-.176.565-.094,1.253-.309,1.451.471s-.509.931-1.05,1.1c-2.209.675-4.463,1.218-6.626,2.014C20,34.123,11.5,40.424,5.583,50.653c1.464,0,2.654-.018,3.836.007.692.015,1.711-.195,1.757.779.045,1.045-.989.807-1.664.82-1.448.029-2.9.01-4.343.012a3.116,3.116,0,0,0-3.125,1.84c.586.528,1.171.306,1.711.306q22.04.025,44.079.012c.506,0,1.013-.015,1.519-.037a.951.951,0,0,0,.984-.951,1.025,1.025,0,0,0-.871-1.1,10.768,10.768,0,0,0-1.947-.072H15.6c-.585,0-1.156-.015-1.736-.022a.775.775,0,0,1-.869-.768c0-.486.385-.758.878-.783.577-.029,1.156-.041,1.735-.041,10.35,0,20.7-.015,31.052.016,1.162,0,2-.138,2.6-1.364a4.511,4.511,0,0,1,3.61-2.506c1.07-.13,1.275-.545.963-1.59q-2.466-8.266-4.8-16.565a2.3,2.3,0,0,0-2.9-1.884c-1.5.221-3.018.357-4.52.586-.725.11-1.625.422-1.765-.575-.146-1.041.9-.9,1.56-1.025.994-.189,2-.331,3-.483,3.261-.5,6.233-1.537,8.412-4.245,1.2-1.489,1.7-3.061.836-4.848a4,4,0,0,0-4.115-2.238c-2.6.057-5.211.05-7.816,0a7.113,7.113,0,0,1-7.213-5.72c-.628-3.542,1.206-6.46,4.943-7.884.1-.04.142-.218.215-.332H55.3c1.268,1.152.446,1.742-.624,2.169a5.8,5.8,0,0,1-2.147.186c-3.684.02-7.371-.1-11.053.047-3.339.132-5.155,2.4-4.57,5.485.417,2.2,2.077,3.573,4.713,3.73,2.524.146,5.056.07,7.584.042,2.644-.031,5.082.654,6.148,3.22a7.761,7.761,0,0,1-.969,7.825c-1.925,2.769-3.22,5.8-2.07,9.492A96.868,96.868,0,0,1,55.74,44.609c.518,3,.335,3.3-2.412,4.365-1.452.561-2.074,1.273-1.345,2.967.869,2.021.439,2.9-1.456,4.169-15.936,0-31.872-.059-47.806.066C.477,56.188-.348,55.694.132,53.474Z" transform="translate(0)" fill="#6b8f2d"/>
      <path id="Path_358" data-name="Path 358" d="M175.079,224.754c-.722,0-1.443.025-2.163,0a4.326,4.326,0,0,1-4.205-3.179c-.667-2.042-.283-4.081,1.575-5.246a50.1,50.1,0,0,1,16.637-6.458c1.5-.312,2.488.663,2.854,2.084.722,2.813,1.41,5.638,1.988,8.49.411,2.02-.545,3.194-2.635,3.345-4.684.337-9.368.613-14.052.913Z" transform="translate(-143.755 -179.101)" fill="#6b8f2d"/>
    </g>
  </g>
</svg>
